<svg id="m0i3o4p0" width="100%" xmlns="http://www.w3.org/2000/svg" style="max-width: 884.4765625px;" viewBox="-8 -8 884.4765625 863.96875" role="graphics-document document" aria-roledescription="flowchart-v2"><style>#m0i3o4p0{font-family:"Geist",-apple-system,system-ui,sans-serif;font-size:16px;fill:#000000;}#m0i3o4p0 .error-icon{fill:#552222;}#m0i3o4p0 .error-text{fill:#552222;stroke:#552222;}#m0i3o4p0 .edge-thickness-normal{stroke-width:2px;}#m0i3o4p0 .edge-thickness-thick{stroke-width:3.5px;}#m0i3o4p0 .edge-pattern-solid{stroke-dasharray:0;}#m0i3o4p0 .edge-pattern-dashed{stroke-dasharray:3;}#m0i3o4p0 .edge-pattern-dotted{stroke-dasharray:2;}#m0i3o4p0 .marker{fill:#000000;stroke:#000000;}#m0i3o4p0 .marker.cross{stroke:#000000;}#m0i3o4p0 svg{font-family:"Geist",-apple-system,system-ui,sans-serif;font-size:16px;}#m0i3o4p0 .label{font-family:"Geist",-apple-system,system-ui,sans-serif;color:#000000;}#m0i3o4p0 .cluster-label text{fill:#333;}#m0i3o4p0 .cluster-label span,#m0i3o4p0 p{color:#333;}#m0i3o4p0 .label text,#m0i3o4p0 span,#m0i3o4p0 p{fill:#000000;color:#000000;}#m0i3o4p0 .node rect,#m0i3o4p0 .node circle,#m0i3o4p0 .node ellipse,#m0i3o4p0 .node polygon,#m0i3o4p0 .node path{fill:#cde498;stroke:#13540c;stroke-width:1px;}#m0i3o4p0 .flowchart-label text{text-anchor:middle;}#m0i3o4p0 .node .katex path{fill:#000;stroke:#000;stroke-width:1px;}#m0i3o4p0 .node .label{text-align:center;}#m0i3o4p0 .node.clickable{cursor:pointer;}#m0i3o4p0 .arrowheadPath{fill:green;}#m0i3o4p0 .edgePath .path{stroke:#000000;stroke-width:2.0px;}#m0i3o4p0 .flowchart-link{stroke:#000000;fill:none;}#m0i3o4p0 .edgeLabel{background-color:#e8e8e8;text-align:center;}#m0i3o4p0 .edgeLabel rect{opacity:0.5;background-color:#e8e8e8;fill:#e8e8e8;}#m0i3o4p0 .labelBkg{background-color:rgba(232, 232, 232, 0.5);}#m0i3o4p0 .cluster rect{fill:#cdffb2;stroke:#6eaa49;stroke-width:1px;}#m0i3o4p0 .cluster text{fill:#333;}#m0i3o4p0 .cluster span,#m0i3o4p0 p{color:#333;}#m0i3o4p0 div.mermaidTooltip{position:absolute;text-align:center;max-width:200px;padding:2px;font-family:"Geist",-apple-system,system-ui,sans-serif;font-size:12px;background:hsl(78.1578947368, 58.4615384615%, 84.5098039216%);border:1px solid #6eaa49;border-radius:2px;pointer-events:none;z-index:100;}#m0i3o4p0 .flowchartTitleText{text-anchor:middle;font-size:18px;fill:#000000;}#m0i3o4p0 :root{--mermaid-font-family:"Geist",-apple-system,system-ui,sans-serif;}#m0i3o4p0 .main&gt;*{fill:#E8F1F5!important;stroke:#78909C!important;stroke-width:1px!important;color:#263238!important;}#m0i3o4p0 .main span{fill:#E8F1F5!important;stroke:#78909C!important;stroke-width:1px!important;color:#263238!important;}#m0i3o4p0 .main tspan{fill:#263238!important;}#m0i3o4p0 .data&gt;*{fill:#F4F7F9!important;stroke:#90A4AE!important;stroke-width:1px!important;color:#37474F!important;}#m0i3o4p0 .data span{fill:#F4F7F9!important;stroke:#90A4AE!important;stroke-width:1px!important;color:#37474F!important;}#m0i3o4p0 .data tspan{fill:#37474F!important;}#m0i3o4p0 .analysis&gt;*{fill:#EEF4F0!important;stroke:#81A68E!important;stroke-width:1px!important;color:#30483A!important;}#m0i3o4p0 .analysis span{fill:#EEF4F0!important;stroke:#81A68E!important;stroke-width:1px!important;color:#30483A!important;}#m0i3o4p0 .analysis tspan{fill:#30483A!important;}#m0i3o4p0 .output&gt;*{fill:#F8F2EA!important;stroke:#B5A07A!important;stroke-width:1px!important;color:#514333!important;}#m0i3o4p0 .output span{fill:#F8F2EA!important;stroke:#B5A07A!important;stroke-width:1px!important;color:#514333!important;}#m0i3o4p0 .output tspan{fill:#514333!important;}</style><g><marker id="m0i3o4p0_flowchart-pointEnd" class="marker flowchart" viewBox="0 0 10 10" refX="6" refY="5" markerUnits="userSpaceOnUse" markerWidth="12" markerHeight="12" orient="auto"><path d="M 0 0 L 10 5 L 0 10 z" class="arrowMarkerPath" style="stroke-width: 1; stroke-dasharray: 1, 0;"/></marker><marker id="m0i3o4p0_flowchart-pointStart" class="marker flowchart" viewBox="0 0 10 10" refX="4.5" refY="5" markerUnits="userSpaceOnUse" markerWidth="12" markerHeight="12" orient="auto"><path d="M 0 5 L 10 10 L 10 0 z" class="arrowMarkerPath" style="stroke-width: 1; stroke-dasharray: 1, 0;"/></marker><marker id="m0i3o4p0_flowchart-circleEnd" class="marker flowchart" viewBox="0 0 10 10" refX="11" refY="5" markerUnits="userSpaceOnUse" markerWidth="11" markerHeight="11" orient="auto"><circle cx="5" cy="5" r="5" class="arrowMarkerPath" style="stroke-width: 1; stroke-dasharray: 1, 0;"/></marker><marker id="m0i3o4p0_flowchart-circleStart" class="marker flowchart" viewBox="0 0 10 10" refX="-1" refY="5" markerUnits="userSpaceOnUse" markerWidth="11" markerHeight="11" orient="auto"><circle cx="5" cy="5" r="5" class="arrowMarkerPath" style="stroke-width: 1; stroke-dasharray: 1, 0;"/></marker><marker id="m0i3o4p0_flowchart-crossEnd" class="marker cross flowchart" viewBox="0 0 11 11" refX="12" refY="5.2" markerUnits="userSpaceOnUse" markerWidth="11" markerHeight="11" orient="auto"><path d="M 1,1 l 9,9 M 10,1 l -9,9" class="arrowMarkerPath" style="stroke-width: 2; stroke-dasharray: 1, 0;"/></marker><marker id="m0i3o4p0_flowchart-crossStart" class="marker cross flowchart" viewBox="0 0 11 11" refX="-1" refY="5.2" markerUnits="userSpaceOnUse" markerWidth="11" markerHeight="11" orient="auto"><path d="M 1,1 l 9,9 M 10,1 l -9,9" class="arrowMarkerPath" style="stroke-width: 2; stroke-dasharray: 1, 0;"/></marker><g class="root"><g class="clusters"/><g class="edgePaths"><path d="M404.518,39.797L404.518,43.964C404.518,48.13,404.518,56.464,404.518,63.914C404.518,71.364,404.518,77.93,404.518,81.214L404.518,84.497" id="L-A-B-0" class=" edge-thickness-normal edge-pattern-solid flowchart-link LS-A LE-B" style="fill:none;" marker-end="url(#m0i3o4p0_flowchart-pointEnd)"/><path d="M404.518,129.594L404.518,133.76C404.518,137.927,404.518,146.26,404.518,153.71C404.518,161.16,404.518,167.727,404.518,171.01L404.518,174.294" id="L-B-C-0" class=" edge-thickness-normal edge-pattern-solid flowchart-link LS-B LE-C" style="fill:none;" marker-end="url(#m0i3o4p0_flowchart-pointEnd)"/><path d="M404.518,219.391L404.518,223.557C404.518,227.724,404.518,236.057,404.518,243.507C404.518,250.957,404.518,257.524,404.518,260.807L404.518,264.091" id="L-C-D-0" class=" edge-thickness-normal edge-pattern-solid flowchart-link LS-C LE-D" style="fill:none;" marker-end="url(#m0i3o4p0_flowchart-pointEnd)"/><path d="M404.518,309.188L404.518,313.354C404.518,317.521,404.518,325.854,404.518,333.304C404.518,340.754,404.518,347.321,404.518,350.604L404.518,353.888" id="L-D-E-0" class=" edge-thickness-normal edge-pattern-solid flowchart-link LS-D LE-E" style="fill:none;" marker-end="url(#m0i3o4p0_flowchart-pointEnd)"/><path d="M404.518,398.984L404.518,403.151C404.518,407.318,404.518,415.651,404.518,423.101C404.518,430.551,404.518,437.118,404.518,440.401L404.518,443.684" id="L-E-F-0" class=" edge-thickness-normal edge-pattern-solid flowchart-link LS-E LE-F" style="fill:none;" marker-end="url(#m0i3o4p0_flowchart-pointEnd)"/><path d="M404.518,488.781L404.518,492.948C404.518,497.115,404.518,505.448,404.518,512.898C404.518,520.348,404.518,526.915,404.518,530.198L404.518,533.481" id="L-F-G-0" class=" edge-thickness-normal edge-pattern-solid flowchart-link LS-F LE-G" style="fill:none;" marker-end="url(#m0i3o4p0_flowchart-pointEnd)"/><path d="M336.775,567.652L291.569,573.64C246.362,579.627,155.949,591.603,110.742,600.874C65.535,610.145,65.535,616.711,65.535,619.995L65.535,623.278" id="L-G-H-0" class=" edge-thickness-normal edge-pattern-solid flowchart-link LS-G LE-H" style="fill:none;" marker-end="url(#m0i3o4p0_flowchart-pointEnd)"/><path d="M336.775,577.224L320.731,581.617C304.686,586.009,272.597,594.794,256.552,602.469C240.508,610.145,240.508,616.711,240.508,619.995L240.508,623.278" id="L-G-I-0" class=" edge-thickness-normal edge-pattern-solid flowchart-link LS-G LE-I" style="fill:none;" marker-end="url(#m0i3o4p0_flowchart-pointEnd)"/><path d="M408.206,578.578L408.978,582.745C409.751,586.911,411.295,595.245,412.068,602.695C412.84,610.145,412.84,616.711,412.84,619.995L412.84,623.278" id="L-G-J-0" class=" edge-thickness-normal edge-pattern-solid flowchart-link LS-G LE-J" style="fill:none;" marker-end="url(#m0i3o4p0_flowchart-pointEnd)"/><path d="M472.26,574.551L492.909,579.389C513.559,584.227,554.857,593.902,575.507,602.024C596.156,610.145,596.156,616.711,596.156,619.995L596.156,623.278" id="L-G-K-0" class=" edge-thickness-normal edge-pattern-solid flowchart-link LS-G LE-K" style="fill:none;" marker-end="url(#m0i3o4p0_flowchart-pointEnd)"/><path d="M472.26,566.518L525.638,572.695C579.016,578.872,685.771,591.225,739.149,600.685C792.527,610.145,792.527,616.711,792.527,619.995L792.527,623.278" id="L-G-L-0" class=" edge-thickness-normal edge-pattern-solid flowchart-link LS-G LE-L" style="fill:none;" marker-end="url(#m0i3o4p0_flowchart-pointEnd)"/><path d="M65.535,668.375L65.535,672.542C65.535,676.708,65.535,685.042,112.009,695.216C158.482,705.391,251.429,717.407,297.903,723.415L344.377,729.423" id="L-H-M-0" class=" edge-thickness-normal edge-pattern-solid flowchart-link LS-H LE-M" style="fill:none;" marker-end="url(#m0i3o4p0_flowchart-pointEnd)"/><path d="M240.508,668.375L240.508,672.542C240.508,676.708,240.508,685.042,257.841,693.724C275.173,702.407,309.839,711.438,327.171,715.954L344.504,720.47" id="L-I-M-0" class=" edge-thickness-normal edge-pattern-solid flowchart-link LS-I LE-M" style="fill:none;" marker-end="url(#m0i3o4p0_flowchart-pointEnd)"/><path d="M412.84,668.375L412.84,672.542C412.84,676.708,412.84,685.042,412.84,692.492C412.84,699.942,412.84,706.508,412.84,709.792L412.84,713.075" id="L-J-M-0" class=" edge-thickness-normal edge-pattern-solid flowchart-link LS-J LE-M" style="fill:none;" marker-end="url(#m0i3o4p0_flowchart-pointEnd)"/><path d="M596.156,668.375L596.156,672.542C596.156,676.708,596.156,685.042,576.996,693.901C557.836,702.761,519.515,712.146,500.355,716.839L481.195,721.532" id="L-K-M-0" class=" edge-thickness-normal edge-pattern-solid flowchart-link LS-K LE-M" style="fill:none;" marker-end="url(#m0i3o4p0_flowchart-pointEnd)"/><path d="M792.527,668.375L792.527,672.542C792.527,676.708,792.527,685.042,740.658,695.342C688.788,705.642,585.049,717.909,533.18,724.043L481.31,730.177" id="L-L-M-0" class=" edge-thickness-normal edge-pattern-solid flowchart-link LS-L LE-M" style="fill:none;" marker-end="url(#m0i3o4p0_flowchart-pointEnd)"/><path d="M363.638,758.172L353.336,762.339C343.033,766.505,322.428,774.839,312.125,782.289C301.822,789.739,301.822,796.305,301.822,799.589L301.822,802.872" id="L-M-N-0" class=" edge-thickness-normal edge-pattern-solid flowchart-link LS-M LE-N" style="fill:none;" marker-end="url(#m0i3o4p0_flowchart-pointEnd)"/><path d="M409.152,758.172L408.379,762.339C407.607,766.505,406.062,774.839,405.29,782.289C404.518,789.739,404.518,796.305,404.518,799.589L404.518,802.872" id="L-M-O-0" class=" edge-thickness-normal edge-pattern-solid flowchart-link LS-M LE-O" style="fill:none;" marker-end="url(#m0i3o4p0_flowchart-pointEnd)"/><path d="M462.041,758.172L472.344,762.339C482.647,766.505,503.252,774.839,513.555,782.289C523.857,789.739,523.857,796.305,523.857,799.589L523.857,802.872" id="L-M-P-0" class=" edge-thickness-normal edge-pattern-solid flowchart-link LS-M LE-P" style="fill:none;" marker-end="url(#m0i3o4p0_flowchart-pointEnd)"/></g><g class="edgeLabels"><g class="edgeLabel"><g class="label" transform="translate(0, 0)"><foreignObject width="0" height="0"><div xmlns="http://www.w3.org/1999/xhtml" style="display: inline-block; white-space: nowrap;"><span class="edgeLabel"></span></div></foreignObject></g></g><g class="edgeLabel"><g class="label" transform="translate(0, 0)"><foreignObject width="0" height="0"><div xmlns="http://www.w3.org/1999/xhtml" style="display: inline-block; white-space: nowrap;"><span class="edgeLabel"></span></div></foreignObject></g></g><g class="edgeLabel"><g class="label" transform="translate(0, 0)"><foreignObject width="0" height="0"><div xmlns="http://www.w3.org/1999/xhtml" style="display: inline-block; white-space: nowrap;"><span class="edgeLabel"></span></div></foreignObject></g></g><g class="edgeLabel"><g class="label" transform="translate(0, 0)"><foreignObject width="0" height="0"><div xmlns="http://www.w3.org/1999/xhtml" style="display: inline-block; white-space: nowrap;"><span class="edgeLabel"></span></div></foreignObject></g></g><g class="edgeLabel"><g class="label" transform="translate(0, 0)"><foreignObject width="0" height="0"><div xmlns="http://www.w3.org/1999/xhtml" style="display: inline-block; white-space: nowrap;"><span class="edgeLabel"></span></div></foreignObject></g></g><g class="edgeLabel"><g class="label" transform="translate(0, 0)"><foreignObject width="0" height="0"><div xmlns="http://www.w3.org/1999/xhtml" style="display: inline-block; white-space: nowrap;"><span class="edgeLabel"></span></div></foreignObject></g></g><g class="edgeLabel"><g class="label" transform="translate(0, 0)"><foreignObject width="0" height="0"><div xmlns="http://www.w3.org/1999/xhtml" style="display: inline-block; white-space: nowrap;"><span class="edgeLabel"></span></div></foreignObject></g></g><g class="edgeLabel"><g class="label" transform="translate(0, 0)"><foreignObject width="0" height="0"><div xmlns="http://www.w3.org/1999/xhtml" style="display: inline-block; white-space: nowrap;"><span class="edgeLabel"></span></div></foreignObject></g></g><g class="edgeLabel"><g class="label" transform="translate(0, 0)"><foreignObject width="0" height="0"><div xmlns="http://www.w3.org/1999/xhtml" style="display: inline-block; white-space: nowrap;"><span class="edgeLabel"></span></div></foreignObject></g></g><g class="edgeLabel"><g class="label" transform="translate(0, 0)"><foreignObject width="0" height="0"><div xmlns="http://www.w3.org/1999/xhtml" style="display: inline-block; white-space: nowrap;"><span class="edgeLabel"></span></div></foreignObject></g></g><g class="edgeLabel"><g class="label" transform="translate(0, 0)"><foreignObject width="0" height="0"><div xmlns="http://www.w3.org/1999/xhtml" style="display: inline-block; white-space: nowrap;"><span class="edgeLabel"></span></div></foreignObject></g></g><g class="edgeLabel"><g class="label" transform="translate(0, 0)"><foreignObject width="0" height="0"><div xmlns="http://www.w3.org/1999/xhtml" style="display: inline-block; white-space: nowrap;"><span class="edgeLabel"></span></div></foreignObject></g></g><g class="edgeLabel"><g class="label" transform="translate(0, 0)"><foreignObject width="0" height="0"><div xmlns="http://www.w3.org/1999/xhtml" style="display: inline-block; white-space: nowrap;"><span class="edgeLabel"></span></div></foreignObject></g></g><g class="edgeLabel"><g class="label" transform="translate(0, 0)"><foreignObject width="0" height="0"><div xmlns="http://www.w3.org/1999/xhtml" style="display: inline-block; white-space: nowrap;"><span class="edgeLabel"></span></div></foreignObject></g></g><g class="edgeLabel"><g class="label" transform="translate(0, 0)"><foreignObject width="0" height="0"><div xmlns="http://www.w3.org/1999/xhtml" style="display: inline-block; white-space: nowrap;"><span class="edgeLabel"></span></div></foreignObject></g></g><g class="edgeLabel"><g class="label" transform="translate(0, 0)"><foreignObject width="0" height="0"><div xmlns="http://www.w3.org/1999/xhtml" style="display: inline-block; white-space: nowrap;"><span class="edgeLabel"></span></div></foreignObject></g></g><g class="edgeLabel"><g class="label" transform="translate(0, 0)"><foreignObject width="0" height="0"><div xmlns="http://www.w3.org/1999/xhtml" style="display: inline-block; white-space: nowrap;"><span class="edgeLabel"></span></div></foreignObject></g></g><g class="edgeLabel"><g class="label" transform="translate(0, 0)"><foreignObject width="0" height="0"><div xmlns="http://www.w3.org/1999/xhtml" style="display: inline-block; white-space: nowrap;"><span class="edgeLabel"></span></div></foreignObject></g></g><g class="edgeLabel"><g class="label" transform="translate(0, 0)"><foreignObject width="0" height="0"><div xmlns="http://www.w3.org/1999/xhtml" style="display: inline-block; white-space: nowrap;"><span class="edgeLabel"></span></div></foreignObject></g></g></g><g class="nodes"><g class="node default main flowchart-label" id="flowchart-A-342" data-node="true" data-id="A" transform="translate(404.517578125, 19.8984375)"><rect class="basic label-container" style="" rx="0" ry="0" x="-115.21484375" y="-19.8984375" width="230.4296875" height="39.796875"/><g class="label" style="" transform="translate(-107.71484375, -12.3984375)"><rect/><foreignObject width="215.4296875" height="24.796875"><div xmlns="http://www.w3.org/1999/xhtml" style="display: inline-block; white-space: nowrap;"><span class="nodeLabel">AI Career Intelligence System</span></div></foreignObject></g></g><g class="node default data flowchart-label" id="flowchart-B-343" data-node="true" data-id="B" transform="translate(404.517578125, 109.6953125)"><rect class="basic label-container" style="" rx="0" ry="0" x="-53.86328125" y="-19.8984375" width="107.7265625" height="39.796875"/><g class="label" style="" transform="translate(-46.36328125, -12.3984375)"><rect/><foreignObject width="92.7265625" height="24.796875"><div xmlns="http://www.w3.org/1999/xhtml" style="display: inline-block; white-space: nowrap;"><span class="nodeLabel">CSV Dataset</span></div></foreignObject></g></g><g class="node default data flowchart-label" id="flowchart-C-344" data-node="true" data-id="C" transform="translate(404.517578125, 199.4921875)"><rect class="basic label-container" style="" rx="0" ry="0" x="-48.64453125" y="-19.8984375" width="97.2890625" height="39.796875"/><g class="label" style="" transform="translate(-41.14453125, -12.3984375)"><rect/><foreignObject width="82.2890625" height="24.796875"><div xmlns="http://www.w3.org/1999/xhtml" style="display: inline-block; white-space: nowrap;"><span class="nodeLabel">CSVLoader</span></div></foreignObject></g></g><g class="node default data flowchart-label" id="flowchart-D-345" data-node="true" data-id="D" transform="translate(404.517578125, 289.2890625)"><rect class="basic label-container" style="" rx="0" ry="0" x="-46.19921875" y="-19.8984375" width="92.3984375" height="39.796875"/><g class="label" style="" transform="translate(-38.69921875, -12.3984375)"><rect/><foreignObject width="77.3984375" height="24.796875"><div xmlns="http://www.w3.org/1999/xhtml" style="display: inline-block; white-space: nowrap;"><span class="nodeLabel">Job Model</span></div></foreignObject></g></g><g class="node default analysis flowchart-label" id="flowchart-E-346" data-node="true" data-id="E" transform="translate(404.517578125, 379.0859375)"><rect class="basic label-container" style="" rx="0" ry="0" x="-62.30859375" y="-19.8984375" width="124.6171875" height="39.796875"/><g class="label" style="" transform="translate(-54.80859375, -12.3984375)"><rect/><foreignObject width="109.6171875" height="24.796875"><div xmlns="http://www.w3.org/1999/xhtml" style="display: inline-block; white-space: nowrap;"><span class="nodeLabel">DatasetProfiler</span></div></foreignObject></g></g><g class="node default analysis flowchart-label" id="flowchart-F-347" data-node="true" data-id="F" transform="translate(404.517578125, 468.8828125)"><rect class="basic label-container" style="" rx="0" ry="0" x="-68.4296875" y="-19.8984375" width="136.859375" height="39.796875"/><g class="label" style="" transform="translate(-60.9296875, -12.3984375)"><rect/><foreignObject width="121.859375" height="24.796875"><div xmlns="http://www.w3.org/1999/xhtml" style="display: inline-block; white-space: nowrap;"><span class="nodeLabel">DatasetValidator</span></div></foreignObject></g></g><g class="node default analysis flowchart-label" id="flowchart-G-348" data-node="true" data-id="G" transform="translate(404.517578125, 558.6796875)"><rect class="basic label-container" style="" rx="0" ry="0" x="-67.7421875" y="-19.8984375" width="135.484375" height="39.796875"/><g class="label" style="" transform="translate(-60.2421875, -12.3984375)"><rect/><foreignObject width="120.484375" height="24.796875"><div xmlns="http://www.w3.org/1999/xhtml" style="display: inline-block; white-space: nowrap;"><span class="nodeLabel">DatasetAnalyzer</span></div></foreignObject></g></g><g class="node default analysis flowchart-label" id="flowchart-H-349" data-node="true" data-id="H" transform="translate(65.53515625, 648.4765625)"><rect class="basic label-container" style="" rx="0" ry="0" x="-65.53515625" y="-19.8984375" width="131.0703125" height="39.796875"/><g class="label" style="" transform="translate(-58.03515625, -12.3984375)"><rect/><foreignObject width="116.0703125" height="24.796875"><div xmlns="http://www.w3.org/1999/xhtml" style="display: inline-block; white-space: nowrap;"><span class="nodeLabel">Market Analysis</span></div></foreignObject></g></g><g class="node default analysis flowchart-label" id="flowchart-I-350" data-node="true" data-id="I" transform="translate(240.5078125, 648.4765625)"><rect class="basic label-container" style="" rx="0" ry="0" x="-59.4375" y="-19.8984375" width="118.875" height="39.796875"/><g class="label" style="" transform="translate(-51.9375, -12.3984375)"><rect/><foreignObject width="103.875" height="24.796875"><div xmlns="http://www.w3.org/1999/xhtml" style="display: inline-block; white-space: nowrap;"><span class="nodeLabel">Skills Analysis</span></div></foreignObject></g></g><g class="node default analysis flowchart-label" id="flowchart-J-351" data-node="true" data-id="J" transform="translate(412.83984375, 648.4765625)"><rect class="basic label-container" style="" rx="0" ry="0" x="-62.89453125" y="-19.8984375" width="125.7890625" height="39.796875"/><g class="label" style="" transform="translate(-55.39453125, -12.3984375)"><rect/><foreignObject width="110.7890625" height="24.796875"><div xmlns="http://www.w3.org/1999/xhtml" style="display: inline-block; white-space: nowrap;"><span class="nodeLabel">Salary Analysis</span></div></foreignObject></g></g><g class="node default analysis flowchart-label" id="flowchart-K-352" data-node="true" data-id="K" transform="translate(596.15625, 648.4765625)"><rect class="basic label-container" style="" rx="0" ry="0" x="-70.421875" y="-19.8984375" width="140.84375" height="39.796875"/><g class="label" style="" transform="translate(-62.921875, -12.3984375)"><rect/><foreignObject width="125.84375" height="24.796875"><div xmlns="http://www.w3.org/1999/xhtml" style="display: inline-block; white-space: nowrap;"><span class="nodeLabel">Demand Analysis</span></div></foreignObject></g></g><g class="node default analysis flowchart-label" id="flowchart-L-353" data-node="true" data-id="L" transform="translate(792.52734375, 648.4765625)"><rect class="basic label-container" style="" rx="0" ry="0" x="-75.94921875" y="-19.8984375" width="151.8984375" height="39.796875"/><g class="label" style="" transform="translate(-68.44921875, -12.3984375)"><rect/><foreignObject width="136.8984375" height="24.796875"><div xmlns="http://www.w3.org/1999/xhtml" style="display: inline-block; white-space: nowrap;"><span class="nodeLabel">Education Analysis</span></div></foreignObject></g></g><g class="node default output flowchart-label" id="flowchart-M-354" data-node="true" data-id="M" transform="translate(412.83984375, 738.2734375)"><rect class="basic label-container" style="" rx="0" ry="0" x="-63.20703125" y="-19.8984375" width="126.4140625" height="39.796875"/><g class="label" style="" transform="translate(-55.70703125, -12.3984375)"><rect/><foreignObject width="111.4140625" height="24.796875"><div xmlns="http://www.w3.org/1999/xhtml" style="display: inline-block; white-space: nowrap;"><span class="nodeLabel">ReportExporter</span></div></foreignObject></g></g><g class="node default output flowchart-label" id="flowchart-N-355" data-node="true" data-id="N" transform="translate(301.822265625, 828.0703125)"><rect class="basic label-container" style="" rx="0" ry="0" x="-29.3515625" y="-19.8984375" width="58.703125" height="39.796875"/><g class="label" style="" transform="translate(-21.8515625, -12.3984375)"><rect/><foreignObject width="43.703125" height="24.796875"><div xmlns="http://www.w3.org/1999/xhtml" style="display: inline-block; white-space: nowrap;"><span class="nodeLabel">JSON</span></div></foreignObject></g></g><g class="node default output flowchart-label" id="flowchart-O-356" data-node="true" data-id="O" transform="translate(404.517578125, 828.0703125)"><rect class="basic label-container" style="" rx="0" ry="0" x="-23.34375" y="-19.8984375" width="46.6875" height="39.796875"/><g class="label" style="" transform="translate(-15.84375, -12.3984375)"><rect/><foreignObject width="31.6875" height="24.796875"><div xmlns="http://www.w3.org/1999/xhtml" style="display: inline-block; white-space: nowrap;"><span class="nodeLabel">CSV</span></div></foreignObject></g></g><g class="node default output flowchart-label" id="flowchart-P-357" data-node="true" data-id="P" transform="translate(523.857421875, 828.0703125)"><rect class="basic label-container" style="" rx="0" ry="0" x="-45.99609375" y="-19.8984375" width="91.9921875" height="39.796875"/><g class="label" style="" transform="translate(-38.49609375, -12.3984375)"><rect/><foreignObject width="76.9921875" height="24.796875"><div xmlns="http://www.w3.org/1999/xhtml" style="display: inline-block; white-space: nowrap;"><span class="nodeLabel">Markdown</span></div></foreignObject></g></g></g></g></g></svg>